# Alias OBJ Model File
# Exported from SketchUp, (c) 2000-2012 Trimble Navigation Limited
# File units = millimeters

mtllib four.mtl

g Mesh1 Model

usemtl FrontColor
v 103 2 -53.6
vt 4.05512 2.11024
vn 0 1 -0
v 3 2 -53.6
vt 0.11811 2.11024
v 3 2 -51.6
vt 0.11811 2.0315
v 103 2 -51.6
vt 4.05512 2.0315
f 1/1/1 2/2/1 3/3/1 4/4/1 

vt -4.05512 0.0787402
vn 0 0 -1
v 106 0 -53.6
vt -4.17323 0
vt -0.11811 0.0787402
f 1/5/2 5/6/2 2/7/2

v 106 21 -53.6
vt -4.17323 0.826772
f 5/6/2 1/5/2 6/8/2

v 103 3 -53.6
vt -4.05512 0.11811
f 6/8/2 1/5/2 7/9/2

vt -2.11024 0.11811
vn -1 0 -0
vt -2.11024 0.0787402
vt -2.0315 0.0787402
v 103 3 -51.6
vt -2.0315 0.11811
f 7/10/3 1/11/3 4/12/3 8/13/3 

v 104 2 -51.6
vt 4.09449 0.0787402
vn 0 0 1
v 104 3 -51.6
vt 4.09449 0.11811
vt 4.05512 0.11811
vt 4.05512 0.0787402
f 9/14/4 10/15/4 8/16/4 4/17/4 

vn -1 1.35358e-13 -2.729e-15
v 104 2 -2
vt -0.0787402 0.0787402
v 104 3 -2
vt -0.0787402 0.11811
f 9/12/5 11/18/5 12/19/5 10/13/5 

v 2 2 -51.6
vt 0.0787402 2.0315
vn -6.97805e-16 1 -4.23458e-15
v 2 2 -2
vt 0.0787402 0.0787402
vt 4.09449 2.0315
v 103 2 -3
v 3 2 -3
vt 0.11811 0.11811
f 13/20/6 14/21/6 11/14/6 9/22/6 4/4/6 15/16/6 16/23/6 3/3/6 

v 2 3 -51.6
vt 2.0315 0.11811
vn 1 0 -0
v 2 3 -2
vt 0.0787402 0.11811
vt 2.0315 0.0787402
f 17/24/7 18/25/7 14/21/7 13/26/7 

v 3 3 -51.6
vt -0.11811 2.0315
vn 0 -1 -0
v 3 3 -3
vt -0.11811 0.11811
v 103 3 -3
vt -4.05512 2.0315
vt -4.09449 2.0315
vt -4.09449 0.0787402
vt -0.0787402 2.0315
f 19/27/8 20/28/8 21/9/8 8/29/8 10/30/8 12/31/8 18/18/8 17/32/8 

vn 1 -1.01448e-30 -1.85677e-15
v 3 4 -51.6
vt 2.0315 0.15748
v 3 4 -3
vt 0.11811 0.15748
f 19/24/9 22/33/9 23/34/9 20/23/9 

v 2 20 -51.6
vt 0.0787402 0.787402
v 2 4 -51.6
vt 0.0787402 0.15748
v 103 4 -51.6
vt 4.05512 0.15748
v 104 4 -51.6
vt 4.09449 0.15748
v 104 20 -51.6
vt 4.09449 0.787402
f 24/35/4 25/36/4 22/34/4 19/23/4 8/16/4 26/37/4 27/38/4 28/39/4 

v 2 20 -2
v 2 4 -2
vt 2.0315 0.787402
f 29/35/7 30/36/7 25/33/7 24/40/7 

v 52.0992 4.22159 -2
vt -2.05115 0.166204
vn 1.33743e-16 2.3144e-15 -1
vt -0.0787402 0.15748
vt -0.0787402 0.787402
f 31/41/10 30/42/10 29/43/10

v 52.7196 4.0661 -2
vt -2.07558 0.160082
f 30/42/10 31/41/10 32/44/10

vt 0.0787402 -1.97438
vn 0.114437 0.993431 -0
vt 0.0787402 -1.9492
vn 0.367656 0.929962 -0
v 52.0992 4.22159 -1.12799e-14
vt 4.44089e-16 -1.9492
v 52.7196 4.0661 -1.12799e-14
vt 4.44089e-16 -1.97438
f 32/45/11 31/46/12 33/47/12 34/48/11 

vt 0.0787402 -1.71198
v 51.5402 4.53236 -2
vt 0.0787402 -1.6868
vn 0.59582 0.803118 -0
v 51.5402 4.53236 -1.12799e-14
vt 4.44089e-16 -1.6868
vt 4.44089e-16 -1.71198
f 31/49/12 35/50/13 36/51/13 33/52/12 

vt -2.02914 0.178439
f 31/41/10 29/43/10 35/53/10

v 51.0807 4.97722 -2
vt -2.01105 0.195954
f 35/53/10 29/43/10 37/54/10

v 50.752 5.52586 -2
vt -1.99811 0.217553
f 37/54/10 29/43/10 38/55/10

v 50.5765 6.14088 -2
vt -1.9912 0.241767
f 38/55/10 29/43/10 39/56/10

v 28 12.7 -2
vt -1.10236 0.5
f 39/56/10 29/43/10 40/57/10

v 28 20 -2
vt -1.10236 0.787402
f 40/57/10 29/43/10 41/58/10

v 78 20 -2
vt -3.07087 0.0787402
vn 2.2201e-17 -1 9.14678e-17
v 78 20 -7
vt -3.07087 0.275591
v 103 20 -7
vt -4.05512 0.275591
v 103 20 -32
vt -4.05512 1.25984
v 78 20 -32
vt -3.07087 1.25984
v 78 20 -26.6
vt -3.07087 1.04724
v 28 20 -26.6
vt -1.10236 1.04724
v 28 20 -32
vt -1.10236 1.25984
v 3 20 -32
vt -0.11811 1.25984
v 3 20 -7
vt -0.11811 0.275591
v 28 20 -7
vt -1.10236 0.275591
vt -1.10236 0.0787402
v 104 20 -2
f 42/59/14 43/60/14 44/61/14 45/62/14 46/63/14 47/64/14 48/65/14 49/66/14 50/67/14 51/68/14 52/69/14 41/70/14 29/18/14 24/32/14 28/30/14 53/31/14 

v 78 12.7 -2
vt 0.0787402 0.5
v 78 12.7 -7
vt 0.275591 0.5
vt 0.275591 0.787402
f 54/71/7 55/72/7 43/73/7 42/35/7 

vn 3.75996e-17 -1 -1.12178e-17
v 78 12.7 -26.6
f 54/59/15 56/64/15 55/60/15

v 72.6 12.7 -7
vt -2.85827 0.275591
f 54/59/15 57/74/15 56/64/15

v 58.4 12.7 -7
vt -2.29921 0.275591
f 54/59/15 58/75/15 57/74/15

v 47.6 12.7 -7
vt -1.87402 0.275591
f 54/59/15 59/76/15 58/75/15

v 33.4 12.7 -7
vt -1.31496 0.275591
f 54/59/15 60/77/15 59/76/15

f 40/70/15 60/77/15 54/59/15

v 33.4 12.7 -21.2
vt -1.31496 0.834646
f 60/77/15 40/70/15 61/78/15

v 28 12.7 -7
f 62/69/15 61/78/15 40/70/15

v 28 12.7 -26.6
f 62/69/15 63/65/15 61/78/15

v 28 12.7 -32
f 62/69/15 64/66/15 63/65/15

v 22.6 12.7 -12.4
vt -0.889764 0.488189
f 62/69/15 65/79/15 64/66/15

v 8.4 12.7 -12.4
vt -0.330709 0.488189
f 62/69/15 66/80/15 65/79/15

v 3 12.7 -7
f 67/68/15 66/80/15 62/69/15

v 8.4 12.7 -26.6
vt -0.330709 1.04724
f 66/80/15 67/68/15 68/81/15

v 3 12.7 -32
f 69/67/15 68/81/15 67/68/15

f 68/81/15 69/67/15 64/66/15

vt -0.11811 0.5
vt -0.11811 0.787402
f 64/57/2 69/82/2 50/83/2 49/58/2 

vt -1.25984 0.5
vt -0.275591 0.5
vt -0.275591 0.787402
vt -1.25984 0.787402
f 69/84/3 67/85/3 51/86/3 50/87/3 

vt 0.11811 0.5
vt 1.10236 0.5
vt 1.10236 0.787402
vt 0.11811 0.787402
f 67/88/4 62/89/4 52/90/4 51/91/4 

vt -0.0787402 0.5
f 62/85/3 40/92/3 41/43/3 52/86/3 

vt 1.04724 0.5
vt 1.25984 0.5
vt 1.25984 0.787402
vt 1.04724 0.787402
f 63/93/7 64/94/7 49/95/7 48/96/7 

vt -3.07087 0.5
vt -3.07087 0.787402
f 56/97/2 63/57/2 48/58/2 47/98/2 

f 61/78/15 63/65/15 56/64/15

v 47.6 12.7 -21.2
vt -1.87402 0.834646
f 61/78/15 56/64/15 70/99/15

v 58.4 12.7 -21.2
vt -2.29921 0.834646
f 70/99/15 56/64/15 71/100/15

v 72.6 12.7 -21.2
vt -2.85827 0.834646
f 71/100/15 56/64/15 72/101/15

f 72/101/15 56/64/15 57/74/15

v 72.6 14 -21.2
vt -0.834646 0.551181
vt -0.834646 0.5
v 72.6 14 -7
vt -0.275591 0.551181
f 73/102/3 72/103/3 57/85/3 74/104/3 

v 58.4 14 -21.2
vt 2.29921 0.551181
vt 2.29921 0.5
vt 2.85827 0.5
vt 2.85827 0.551181
f 75/105/4 71/106/4 72/107/4 73/108/4 

v 58.4 14 -7
vt 0.275591 0.551181
vt 0.834646 0.5
vt 0.834646 0.551181
f 76/109/7 58/72/7 71/110/7 75/111/7 

vt -2.85827 0.551181
vt -2.85827 0.5
vt -2.29921 0.5
vt -2.29921 0.551181
f 74/112/2 57/113/2 58/114/2 76/115/2 

vt 2.29921 0.275591
vn -5.93677e-16 1 5.93677e-16
v 75 14 -4.6
vt 2.95276 0.181102
vt 2.85827 0.275591
f 76/116/16 77/117/16 74/118/16

v 56 14 -4.6
vt 2.20472 0.181102
f 76/116/16 78/119/16 77/117/16

v 56 14 -23.6
vt 2.20472 0.929134
f 78/119/16 76/116/16 79/120/16

vt 2.29921 0.834646
f 75/121/16 79/120/16 76/116/16

v 75 14 -23.6
vt 2.95276 0.929134
f 79/120/16 75/121/16 80/122/16

vt 2.85827 0.834646
f 80/122/16 75/121/16 73/123/16

f 80/122/16 73/123/16 77/117/16

f 74/118/16 77/117/16 73/123/16

vt -0.929134 0.551181
vt -0.181102 0.551181
v 75 22 -4.6
vt -0.181102 0.866142
v 75 22 -23.6
vt -0.929134 0.866142
f 80/124/3 77/125/3 81/126/3 82/127/3 

vt -2.95276 0.551181
vt -2.20472 0.551181
v 56 22 -4.6
vt -2.20472 0.866142
vt -2.95276 0.866142
f 77/128/2 78/129/2 83/130/2 81/131/2 

vt 0.181102 0.551181
vt 0.929134 0.551181
v 56 22 -23.6
vt 0.929134 0.866142
vt 0.181102 0.866142
f 78/132/7 79/133/7 84/134/7 83/135/7 

vt 2.20472 0.551181
vt 2.95276 0.551181
vt 2.95276 0.866142
vt 2.20472 0.866142
f 79/136/4 80/137/4 82/138/4 84/139/4 

v 104.5 22 -52.1
vt 4.11417 2.05118
vn 0 1 5.57306e-17
f 85/140/17 84/120/17 82/122/17

v 50 22 -23.6
vt 1.9685 0.929134
f 85/140/17 86/141/17 84/120/17

v 31 22 -23.6
vt 1.22047 0.929134
f 85/140/17 87/142/17 86/141/17

v 25 22 -29
vt 0.984252 1.14173
f 85/140/17 88/143/17 87/142/17

v 6 22 -29
vt 0.23622 1.14173
f 85/140/17 89/144/17 88/143/17

v 1.5 22 -52.1
vt 0.0590551 2.05118
f 90/145/17 89/144/17 85/140/17

v 6 22 -10
vt 0.23622 0.393701
f 89/144/17 90/145/17 91/146/17

v 1.5 22 -1.5
vt 0.0590551 0.0590551
f 92/147/17 91/146/17 90/145/17

v 31 22 -4.6
vt 1.22047 0.181102
f 91/146/17 92/147/17 93/148/17

v 104.5 22 -1.5
vt 4.11417 0.0590551
f 93/148/17 92/147/17 94/149/17

v 0 21 -0
vt 0 0.45861
vn -2.27349e-19 0.83205 0.5547
v 106 21 -0
vt 4.17323 0.45861
vt 4.11417 0.529586
vt 0.0590551 0.529586
f 95/150/18 96/151/18 94/152/18 92/153/18 

vt 0 0.826772
v 53.2804 8.9339 -1.12799e-14
vt 2.09765 0.351729
vt 4.17323 0.826772
f 95/154/4 97/155/4 96/156/4

v 52.6409 8.92354 -1.12799e-14
vt 2.07248 0.35132
f 95/154/4 98/157/4 97/155/4

v 52.0259 8.74801 -1.12799e-14
vt 2.04826 0.34441
f 95/154/4 99/158/4 98/157/4

v 51.4772 8.41928 -1.12799e-14
vt 2.02666 0.331468
f 95/154/4 100/159/4 99/158/4

v 51.0324 7.95976 -1.12799e-14
vt 2.00915 0.313376
f 95/154/4 101/160/4 100/159/4

v 50.7216 7.40076 -1.12799e-14
vt 1.99691 0.291368
f 95/154/4 102/161/4 101/160/4

v 50.5661 6.78037 -1.12799e-14
vt 1.99079 0.266944
f 95/154/4 103/162/4 102/161/4

v 50.5765 6.14088 -1.12799e-14
vt 1.9912 0.241767
f 95/154/4 104/163/4 103/162/4

v 50.752 5.52586 -1.12799e-14
vt 1.99811 0.217553
f 95/154/4 105/164/4 104/163/4

v 51.0807 4.97722 -1.12799e-14
vt 2.01105 0.195954
f 95/154/4 106/165/4 105/164/4

vt 2.02914 0.178439
f 95/154/4 36/166/4 106/165/4

vt 2.05115 0.166204
f 95/154/4 33/167/4 36/166/4

v 0 0 -0
vt 0 0
f 107/168/4 33/167/4 95/154/4

vt 2.07558 0.160082
f 33/167/4 107/168/4 34/169/4

v 53.3591 4.07646 -1.12799e-14
vt 2.10075 0.160491
f 107/168/4 108/170/4 34/169/4

v 106 0 -0
vt 4.17323 0
f 109/171/4 108/170/4 107/168/4

v 53.9741 4.25199 -1.12799e-14
vt 2.12497 0.167401
f 108/170/4 109/171/4 110/172/4

f 110/172/4 109/171/4 96/156/4

vt 2.11024 0.826772
vt 2.11024 0
f 6/173/7 96/154/7 109/168/7 5/174/7 

vt 2.05118 -2.94275
vn 0.5547 0.83205 4.4561e-17
vt 0.0590551 -2.94275
vt 3.3525e-16 -3.01373
vt 2.11024 -3.01373
f 85/175/19 94/176/19 96/177/19 6/178/19 

v 100 22 -29
vt 3.93701 1.14173
f 85/140/17 111/179/17 94/149/17

v 81 22 -29
vt 3.18898 1.14173
f 85/140/17 112/180/17 111/179/17

f 85/140/17 82/122/17 112/180/17

v 81 22 -10
vt 3.18898 0.393701
f 112/180/17 82/122/17 113/181/17

f 81/117/17 113/181/17 82/122/17

f 81/117/17 94/149/17 113/181/17

f 83/119/17 94/149/17 81/117/17

v 50 22 -4.6
vt 1.9685 0.181102
f 114/182/17 94/149/17 83/119/17

f 93/148/17 94/149/17 114/182/17

v 50 14 -4.6
vt -1.9685 0.551181
v 31 14 -4.6
vt -1.22047 0.551181
vt -1.22047 0.866142
vt -1.9685 0.866142
f 115/183/2 116/184/2 93/185/2 114/186/2 

v 33.4 14 -7
vt 1.31496 0.275591
vn 3.71048e-16 1 3.71048e-16
f 117/187/20 116/148/20 115/182/20

v 31 14 -23.6
f 116/148/20 117/187/20 118/142/20

v 33.4 14 -21.2
vt 1.31496 0.834646
f 119/188/20 118/142/20 117/187/20

v 50 14 -23.6
f 118/142/20 119/188/20 120/141/20

v 47.6 14 -21.2
vt 1.87402 0.834646
f 120/141/20 119/188/20 121/189/20

vt 1.31496 0.551181
vt 1.31496 0.5
vt 1.87402 0.5
vt 1.87402 0.551181
f 119/190/4 61/191/4 70/192/4 121/193/4 

f 117/109/7 60/72/7 61/110/7 119/111/7 

v 47.6 14 -7
vt -1.87402 0.551181
vt -1.87402 0.5
vt -1.31496 0.5
vt -1.31496 0.551181
f 122/194/2 59/195/2 60/196/2 117/197/2 

f 121/102/3 70/103/3 59/85/3 122/104/3 

f 70/99/15 71/100/15 59/76/15

f 58/75/15 59/76/15 71/100/15

vt 1.87402 0.275591
f 122/198/20 115/182/20 121/189/20

f 117/187/20 115/182/20 122/198/20

f 120/141/20 121/189/20 115/182/20

f 120/124/3 115/125/3 114/126/3 86/127/3 

f 114/182/17 83/119/17 86/141/17

f 84/120/17 86/141/17 83/119/17

vt 1.22047 0.551181
vt 1.9685 0.551181
vt 1.9685 0.866142
vt 1.22047 0.866142
f 118/199/4 120/200/4 86/201/4 87/202/4 

f 116/132/7 118/133/7 87/134/7 93/135/7 

f 87/142/17 88/143/17 93/148/17

v 25 22 -10
vt 0.984252 0.393701
f 123/203/17 93/148/17 88/143/17

f 91/146/17 93/148/17 123/203/17

v 25 14 -10
vt -0.984252 0.551181
v 6 14 -10
vt -0.23622 0.551181
vt -0.23622 0.866142
vt -0.984252 0.866142
f 124/204/2 125/205/2 91/206/2 123/207/2 

v 8.4 14 -12.4
vt 0.330709 0.488189
f 126/208/1 125/146/1 124/203/1

v 6 14 -29
f 125/146/1 126/208/1 127/144/1

v 8.4 14 -26.6
vt 0.330709 1.04724
f 128/209/1 127/144/1 126/208/1

v 25 14 -29
f 127/144/1 128/209/1 129/143/1

v 22.6 14 -26.6
vt 0.889764 1.04724
f 129/143/1 128/209/1 130/210/1

vt 0.330709 0.551181
vt 0.330709 0.5
v 22.6 12.7 -26.6
vt 0.889764 0.5
vt 0.889764 0.551181
f 128/211/4 68/212/4 131/213/4 130/214/4 

vt 0.488189 0.551181
vt 0.488189 0.5
vt 1.04724 0.551181
f 126/215/7 66/216/7 68/93/7 128/217/7 

v 22.6 14 -12.4
vt -0.889764 0.551181
vt -0.889764 0.5
vt -0.330709 0.5
vt -0.330709 0.551181
f 132/218/2 65/219/2 66/220/2 126/221/2 

vt -1.04724 0.551181
vt -1.04724 0.5
vt -0.488189 0.5
vt -0.488189 0.551181
f 130/222/3 131/223/3 65/224/3 132/225/3 

vt -0.889764 1.04724
f 131/226/15 64/66/15 65/79/15

f 68/81/15 64/66/15 131/226/15

vt 0.889764 0.488189
f 132/227/1 124/203/1 130/210/1

f 126/208/1 124/203/1 132/227/1

f 129/143/1 130/210/1 124/203/1

vt -1.14173 0.551181
vt -0.393701 0.551181
vt -0.393701 0.866142
vt -1.14173 0.866142
f 129/228/3 124/229/3 123/230/3 88/231/3 

vt 0.23622 0.551181
vt 0.984252 0.551181
vt 0.984252 0.866142
vt 0.23622 0.866142
f 127/232/4 129/233/4 88/234/4 89/235/4 

vt 0.393701 0.551181
vt 1.14173 0.551181
vt 1.14173 0.866142
vt 0.393701 0.866142
f 125/236/7 127/237/7 89/238/7 91/239/7 

v 100 22 -10
vt 3.93701 0.393701
f 113/181/17 94/149/17 133/240/17

f 133/240/17 94/149/17 111/179/17

v 100 14 -29
v 100 14 -10
f 134/228/3 135/229/3 133/230/3 111/231/3 

vn -3.71048e-16 1 3.71048e-16
v 97.6 14 -26.6
vt 3.84252 1.04724
f 134/179/21 136/241/21 135/240/21

v 83.4 14 -26.6
vt 3.28346 1.04724
f 134/179/21 137/242/21 136/241/21

v 81 14 -29
f 138/180/21 137/242/21 134/179/21

v 83.4 14 -12.4
vt 3.28346 0.488189
f 137/242/21 138/180/21 139/243/21

v 81 14 -10
f 140/181/21 139/243/21 138/180/21

f 139/243/21 140/181/21 135/240/21

vt -3.93701 0.551181
vt -3.18898 0.551181
vt -3.18898 0.866142
vt -3.93701 0.866142
f 135/244/2 140/245/2 113/246/2 133/247/2 

f 140/236/7 138/237/7 112/238/7 113/239/7 

vt 3.18898 0.551181
vt 3.93701 0.551181
vt 3.93701 0.866142
vt 3.18898 0.866142
f 138/248/4 134/249/4 111/250/4 112/251/4 

v 97.6 14 -12.4
vt 3.84252 0.488189
f 139/243/21 135/240/21 141/252/21

f 141/252/21 135/240/21 136/241/21

v 97.6 12.7 -26.6
v 97.6 12.7 -12.4
f 136/222/3 142/223/3 143/224/3 141/225/3 

vt 3.28346 0.551181
v 83.4 12.7 -26.6
vt 3.28346 0.5
vt 3.84252 0.5
vt 3.84252 0.551181
f 137/253/4 144/254/4 142/255/4 136/256/4 

v 83.4 12.7 -12.4
f 139/215/7 145/216/7 144/93/7 137/217/7 

vt -3.84252 0.551181
vt -3.84252 0.5
vt -3.28346 0.5
vt -3.28346 0.551181
f 141/257/2 143/258/2 145/259/2 139/260/2 

v 103 12.7 -7
vt -3.28346 0.488189
vt -3.84252 0.488189
f 146/61/15 145/261/15 143/262/15

f 55/60/15 145/261/15 146/61/15

vt -3.28346 1.04724
f 145/261/15 55/60/15 144/263/15

f 56/64/15 144/263/15 55/60/15

v 103 12.7 -32
f 56/64/15 147/62/15 144/263/15

v 78 12.7 -32
f 147/62/15 56/64/15 148/63/15

vt -1.04724 0.787402
f 148/84/3 56/223/3 47/264/3 46/87/3 

vt -4.05512 0.5
vt -4.05512 0.787402
f 147/265/2 148/97/2 46/98/2 45/266/2 

f 146/72/7 147/94/7 45/95/7 44/73/7 

f 146/61/15 143/262/15 147/62/15

vt -3.84252 1.04724
f 142/267/15 147/62/15 143/262/15

f 144/263/15 147/62/15 142/267/15

vt 3.07087 0.5
vt 4.05512 0.5
vt 4.05512 0.787402
vt 3.07087 0.787402
f 55/268/4 146/269/4 44/270/4 43/271/4 

vt -0.0590551 -1.22624
vn -2.27349e-19 0.83205 -0.5547
vt -4.11417 -1.22624
vt -4.17323 -1.29721
v 0 21 -53.6
vt -8.64902e-19 -1.29721
f 90/272/22 85/273/22 6/274/22 149/275/22 

f 6/8/2 7/9/2 149/154/2

v 3 3 -53.6
f 150/28/2 149/154/2 7/9/2

f 2/7/2 149/154/2 150/28/2

v 0 0 -53.6
f 2/7/2 151/168/2 149/154/2

f 151/168/2 2/7/2 5/6/2

v 2 0 -51.6
vt 0 2.11024
vt -4.17323 2.11024
f 152/32/8 151/276/8 5/277/8

f 151/276/8 152/32/8 107/168/8

v 2 0 -2
f 153/18/8 107/168/8 152/32/8

f 107/168/8 153/18/8 109/6/8

v 104 0 -2
f 109/6/8 153/18/8 154/31/8

vt -0.0787402 2.22045e-15
vn 5.52935e-17 -2.81997e-14 -1
v 2 1 -2
vt -0.0787402 0.0393701
v 104 1 -2
vt -4.09449 0.0393701
vt -4.09449 2.22045e-15
f 153/278/23 155/279/23 156/280/23 154/281/23 

v 2 1 -51.6
vt 2.0315 0.0393701
vt 0.0787402 0.0393701
vt 0.0787402 0
vt 2.0315 0
f 157/282/7 155/283/7 153/284/7 152/285/7 

v 3 1 -51.6
vn 8.86871e-16 -1 4.10801e-15
v 3 1 -3
v 103 1 -3
v 103 1 -51.6
v 104 1 -51.6
f 158/27/24 159/28/24 160/9/24 161/29/24 162/30/24 156/31/24 155/18/24 157/32/24 

vt 0.11811 0.0787402
vt 0.11811 0.0393701
f 158/282/7 3/26/7 16/286/7 159/287/7 

v 104 0 -51.6
vt 4.09449 0
vt 4.09449 0.0393701
vt 4.05512 0.0393701
f 4/17/4 3/286/4 158/287/4 157/283/4 152/284/4 163/288/4 162/289/4 161/290/4 

f 152/32/8 5/277/8 163/30/8

f 163/30/8 5/277/8 154/31/8

f 109/6/8 154/31/8 5/277/8

vt -0.0787402 -5.54223e-13
vn -1 -1.35358e-13 -2.729e-15
vt -2.0315 0.0393701
vt -2.0315 -5.54223e-13
f 154/291/25 156/279/25 162/292/25 163/293/25 

vn -1 -1.14538e-30 -6.49869e-15
vt -0.11811 0.0393701
f 161/292/26 160/294/26 15/7/26 4/12/26 

vt -4.05512 0.0393701
f 15/5/2 160/295/2 159/294/2 16/7/2 

vt -2.11024 0.826772
vt -2.11024 0
f 95/154/3 149/296/3 151/297/3 107/168/3 

vt -0.0590551 0.529586
vn -0.5547 0.83205 4.4561e-17
vt -2.05118 0.529586
vt -2.11024 0.45861
f 92/298/27 90/299/27 149/300/27 95/150/27 

vt 2.11024 0.0787402
vt 2.11024 0.11811
f 2/301/7 150/302/7 19/24/7 3/26/7 

vt -0.11811 2.11024
vt -4.05512 2.11024
f 150/303/8 7/304/8 8/29/8 19/27/8 

f 17/25/4 13/21/4 3/286/4 19/23/4 

v 54.5228 4.58072 -1.12799e-14
vt 2.14657 0.180343
f 110/172/4 96/156/4 164/305/4

v 54.9676 5.04024 -1.12799e-14
vt 2.16408 0.198435
f 164/305/4 96/156/4 165/306/4

v 55.2784 5.59924 -1.12799e-14
vt 2.17632 0.220443
f 165/306/4 96/156/4 166/307/4

v 55.4339 6.21963 -1.12799e-14
vt 2.18244 0.244867
f 166/307/4 96/156/4 167/308/4

v 55.4235 6.85912 -1.12799e-14
vt 2.18203 0.270044
f 167/308/4 96/156/4 168/309/4

v 55.248 7.47414 -1.12799e-14
vt 2.17512 0.294258
f 168/309/4 96/156/4 169/310/4

v 54.9193 8.02278 -1.12799e-14
vt 2.16218 0.315857
f 169/310/4 96/156/4 170/311/4

v 54.4598 8.46764 -1.12799e-14
vt 2.14409 0.333372
f 170/311/4 96/156/4 171/312/4

v 53.9008 8.77841 -1.12799e-14
vt 2.12208 0.345607
f 171/312/4 96/156/4 172/313/4

f 172/313/4 96/156/4 97/155/4

v 53.2804 8.9339 -2
vt -0.0787402 -1.9492
vn -0.114437 -0.993431 -0
v 53.9008 8.77841 -2
vt -0.0787402 -1.97438
vn -0.367656 -0.929962 -0
vt -4.44089e-16 -1.97438
vt -4.44089e-16 -1.9492
f 173/314/28 174/315/29 172/316/29 97/317/28 

vt -2.12208 0.345607
vt -2.09765 0.351729
f 54/97/10 174/318/10 173/319/10

v 54.4598 8.46764 -2
vt -2.14409 0.333372
f 54/97/10 175/320/10 174/318/10

v 54.9193 8.02278 -2
vt -2.16218 0.315857
f 54/97/10 176/321/10 175/320/10

v 55.248 7.47414 -2
vt -2.17512 0.294258
f 54/97/10 177/322/10 176/321/10

v 55.4235 6.85912 -2
vt -2.18203 0.270044
f 54/97/10 178/323/10 177/322/10

v 55.4339 6.21963 -2
vt -2.18244 0.244867
f 54/97/10 179/324/10 178/323/10

vt -4.09449 0.787402
f 53/325/10 179/324/10 54/97/10

v 55.2784 5.59924 -2
vt -2.17632 0.220443
f 53/325/10 180/326/10 179/324/10

v 54.9676 5.04024 -2
vt -2.16408 0.198435
f 53/325/10 181/327/10 180/326/10

v 54.5228 4.58072 -2
vt -2.14657 0.180343
f 53/325/10 182/328/10 181/327/10

v 53.9741 4.25199 -2
vt -2.12497 0.167401
f 53/325/10 183/329/10 182/328/10

v 104 4 -2
vt -4.09449 0.15748
f 184/330/10 183/329/10 53/325/10

v 53.3591 4.07646 -2
vt -2.10075 0.160491
f 183/329/10 184/330/10 185/331/10

f 185/331/10 184/330/10 32/44/10

f 32/44/10 184/330/10 30/42/10

vn 2.31081e-16 1 1.54692e-16
v 103 4 -3
f 25/20/30 30/21/30 184/14/30 27/22/30 26/4/30 186/16/30 23/23/30 22/3/30 

vt -2.0315 0.15748
vt -2.0315 0.787402
f 27/332/3 184/42/3 53/43/3 28/333/3 

vt -0.11811 0.15748
f 8/13/3 21/28/3 186/334/3 26/332/3 

vt -4.05512 0.15748
f 186/335/2 21/9/2 20/28/2 23/334/2 

vt -0.0787402 2.10308
vn -0.146581 0.989199 -0
vt -0.0787402 2.0779
vt -4.44089e-16 2.0779
vt -4.44089e-16 2.10308
f 185/336/31 32/337/11 34/338/11 108/339/31 

vt -0.0787402 2.08932
vn -0.39761 0.917554 -0
vt -0.0787402 2.06414
vt -4.44089e-16 2.06414
vt -4.44089e-16 2.08932
f 183/340/32 185/341/31 108/342/31 110/343/32 

vt -0.0787402 1.93403
vn -0.621542 0.78338 -0
vt -0.0787402 1.90885
vt -4.44089e-16 1.90885
vt -4.44089e-16 1.93403
f 182/344/33 183/345/32 110/346/32 164/347/33 

vt -0.0787402 1.6478
vn -0.803118 0.59582 -0
vt -0.0787402 1.62262
vt -4.44089e-16 1.62262
vt -4.44089e-16 1.6478
f 181/348/34 182/349/33 164/350/33 165/351/34 

vt -0.0787402 1.25013
vn -0.929962 0.367656 -0
vt -0.0787402 1.22495
vt -4.44089e-16 1.22495
vt -4.44089e-16 1.25013
f 180/352/35 181/353/34 165/354/34 166/355/35 

vt -0.0787402 0.768128
vn -0.993431 0.114437 -0
vt -0.0787402 0.742948
vt -4.44089e-16 0.742948
vt -4.44089e-16 0.768128
f 179/356/36 180/357/35 166/358/35 167/359/36 

vt -0.0787402 0.234636
vn -0.989199 -0.146581 -0
vt -0.0787402 0.209456
vt -4.44089e-16 0.209456
vt -4.44089e-16 0.234636
f 178/360/37 179/361/36 167/362/36 168/363/37 

vt -0.0787402 -0.313988
vn -0.917554 -0.39761 -0
vt -0.0787402 -0.339169
vt -4.44089e-16 -0.339169
vt -4.44089e-16 -0.313988
f 177/364/38 178/365/37 168/366/37 169/367/38 

vt -0.0787402 -0.840357
vn -0.78338 -0.621542 -0
vt -0.0787402 -0.865537
vt -4.44089e-16 -0.865537
vt -4.44089e-16 -0.840357
f 176/368/39 177/369/38 169/370/38 170/371/39 

vt -0.0787402 -1.3086
vn -0.59582 -0.803118 -0
vt -0.0787402 -1.33378
vt -4.44089e-16 -1.33378
vt -4.44089e-16 -1.3086
f 175/372/40 176/373/39 170/374/39 171/375/40 

vt -0.0787402 -1.6868
vt -0.0787402 -1.71198
vt -4.44089e-16 -1.71198
vt -4.44089e-16 -1.6868
f 174/376/29 175/377/40 171/378/40 172/379/29 

f 53/325/10 54/97/10 42/98/10

f 54/97/10 173/319/10 40/57/10

v 52.6409 8.92354 -2
vt -2.07248 0.35132
f 187/380/10 40/57/10 173/319/10

v 52.0259 8.74801 -2
vt -2.04826 0.34441
f 188/381/10 40/57/10 187/380/10

v 51.4772 8.41928 -2
vt -2.02666 0.331468
f 189/382/10 40/57/10 188/381/10

v 51.0324 7.95976 -2
vt -2.00915 0.313376
f 190/383/10 40/57/10 189/382/10

v 50.7216 7.40076 -2
vt -1.99691 0.291368
f 191/384/10 40/57/10 190/383/10

v 50.5661 6.78037 -2
vt -1.99079 0.266944
f 192/385/10 40/57/10 191/384/10

f 39/56/10 40/57/10 192/385/10

vt 0.0787402 0.209456
vn 0.989199 0.146581 -0
vt 0.0787402 0.234636
vn 0.993431 -0.114437 -0
vt 4.44089e-16 0.234636
vt 4.44089e-16 0.209456
f 39/386/41 192/387/42 103/388/42 104/389/41 

vt 0.0787402 0.742948
vt 0.0787402 0.768128
vn 0.929962 -0.367656 -0
vt 4.44089e-16 0.768128
vt 4.44089e-16 0.742948
f 192/390/42 191/391/43 102/392/43 103/393/42 

vt 0.0787402 1.22495
vt 0.0787402 1.25013
vn 0.803118 -0.59582 -0
vt 4.44089e-16 1.25013
vt 4.44089e-16 1.22495
f 191/394/43 190/395/44 101/396/44 102/397/43 

vt 0.0787402 1.62262
vt 0.0787402 1.6478
vn 0.621542 -0.78338 -0
vt 4.44089e-16 1.6478
vt 4.44089e-16 1.62262
f 190/398/44 189/399/45 100/400/45 101/401/44 

vt 0.0787402 1.90885
vt 0.0787402 1.93403
vn 0.39761 -0.917554 -0
vt 4.44089e-16 1.93403
vt 4.44089e-16 1.90885
f 189/402/45 188/403/46 99/404/46 100/405/45 

vt 0.0787402 2.06414
vt 0.0787402 2.08932
vn 0.146581 -0.989199 -0
vt 4.44089e-16 2.08932
vt 4.44089e-16 2.06414
f 188/406/46 187/407/47 98/408/47 99/409/46 

vt 0.0787402 2.0779
vt 0.0787402 2.10308
vt 4.44089e-16 2.10308
vt 4.44089e-16 2.0779
f 187/410/47 173/411/28 97/412/28 98/413/47 

vt 0.0787402 -0.339169
vn 0.917554 0.39761 -0
vt 0.0787402 -0.313988
vt 4.44089e-16 -0.313988
vt 4.44089e-16 -0.339169
f 38/414/48 39/415/41 104/416/41 105/417/48 

vt 0.0787402 -0.865537
vn 0.78338 0.621542 -0
vt 0.0787402 -0.840357
vt 4.44089e-16 -0.840357
vt 4.44089e-16 -0.865537
f 37/418/49 38/419/48 105/420/48 106/421/49 

vt 0.0787402 -1.33378
vt 0.0787402 -1.3086
vt 4.44089e-16 -1.3086
vt 4.44089e-16 -1.33378
f 35/422/13 37/423/49 106/424/49 36/425/13 

vn 1.10587e-16 -3.16419e-27 -1
vt -4.09449 0.11811
f 14/18/50 18/19/50 12/426/50 11/31/50 

