# Alias OBJ Model File
# Exported from SketchUp, (c) 2000-2012 Trimble Navigation Limited
# File units = millimeters

mtllib singlebuttontest.mtl

g Mesh1 Model

usemtl FrontColor
v 86.4 -4.01845e-14 -84.6
vt 3.33071 -1.15987e-15
vn 1 -1.24118e-16 -0
v 86.4 1.3 -84.6
vt 3.33071 0.0511811
v 86.4 1.3 -70.4
vt 2.77165 0.0511811
v 86.4 -4.01845e-14 -70.4
vt 2.77165 -1.15987e-15
f 1/1/1 2/2/1 3/3/1 4/4/1 

v 100.6 -4.01845e-14 -84.6
vt 3.96063 -1.99547e-15
vn 0 -1.24118e-16 1
v 100.6 1.3 -84.6
vt 3.96063 0.0511811
vt 3.40157 0.0511811
vt 3.40157 -1.99547e-15
f 5/5/2 6/6/2 2/7/2 1/8/2 

v 100.6 -4.37095e-14 -70.4
vt -2.77165 -1.22926e-15
vn -1 1.24118e-16 3.08107e-32
v 100.6 1.3 -70.4
vt -2.77165 0.0511811
vt -3.33071 0.0511811
vt -3.33071 -1.09048e-15
f 7/9/3 8/10/3 6/11/3 5/12/3 

vt -3.40157 -1.92608e-15
vn 3.08107e-32 1.24118e-16 -1
vt -3.40157 0.0511811
vt -3.96063 0.0511811
vt -3.96063 -2.06486e-15
f 4/13/4 3/14/4 8/15/4 7/16/4 

vt 3.40157 2.77165
vn -7.69989e-17 1 8.02822e-17
v 106 1.3 -65
vt 4.17323 2.55906
vt 3.96063 2.77165
f 3/17/5 9/18/5 8/19/5

v 81 1.3 -65
vt 3.18898 2.55906
f 3/17/5 10/20/5 9/18/5

v 81 1.3 -90
vt 3.18898 3.54331
f 10/20/5 3/17/5 11/21/5

vt 3.40157 3.33071
f 2/22/5 11/21/5 3/17/5

v 106 1.3 -90
vt 4.17323 3.54331
f 11/21/5 2/22/5 12/23/5

vt 3.96063 3.33071
f 12/23/5 2/22/5 6/24/5

f 12/23/5 6/24/5 9/18/5

f 8/19/5 9/18/5 6/24/5

v 106 5 -65
vt -2.55906 0.19685
vn -1 -7.69989e-17 -1.30281e-32
v 106 5 -90
vt -3.54331 0.19685
vt -3.54331 0.0511811
vt -2.55906 0.0511811
f 13/25/6 14/26/6 12/27/6 9/28/6 

vn 3.99657e-18 1 -2.89621e-17
v 112 5 -58
vt 4.40945 2.28346
f 13/18/7 15/29/7 14/23/7

v 81 5 -65
f 16/20/7 15/29/7 13/18/7

v 75.6 5 -58
vt 2.97638 2.28346
f 16/20/7 17/30/7 15/29/7

v 75.6 5 -96
vt 2.97638 3.77953
f 17/30/7 16/20/7 18/31/7

v 81 5 -90
f 19/21/7 18/31/7 16/20/7

v 112 5 -96
vt 4.40945 3.77953
f 18/31/7 19/21/7 20/32/7

f 20/32/7 19/21/7 14/23/7

vt 4.17323 0.19685
vn 1.35836e-32 -8.02822e-17 1
vt 3.18898 0.19685
vt 3.18898 0.0511811
vt 4.17323 0.0511811
f 14/33/8 19/34/8 11/35/8 12/36/8 

vt 3.54331 0.0511811
vn 1 0 -0
vt 3.54331 0.19685
vt 2.55906 0.19685
vt 2.55906 0.0511811
f 11/37/9 19/38/9 16/39/9 10/40/9 

vt -3.18898 0.19685
vn 0 8.02822e-17 -1
vt -4.17323 0.19685
vt -4.17323 0.0511811
vt -3.18898 0.0511811
f 16/41/10 13/42/10 9/43/10 10/44/10 

f 20/32/7 14/23/7 15/29/7

v 112 2 -96
vt 3.77953 0.0787402
vt 3.77953 0.19685
vt 2.28346 0.19685
v 112 2 -58
vt 2.28346 0.0787402
f 21/45/9 20/46/9 15/47/9 22/48/9 

v 75.6 2 -96
vt -2.97638 0.0787402
vn 0 0 -1
vt -2.97638 0.19685
vt -4.40945 0.19685
vt -4.40945 0.0787402
f 23/49/11 18/50/11 20/51/11 21/52/11 

v 75.6 2 -58
vt -2.28346 0.0787402
vn -1 0 -0
vt -2.28346 0.19685
vt -3.77953 0.19685
vt -3.77953 0.0787402
f 24/53/12 17/54/12 18/55/12 23/56/12 

vt 4.40945 0.0787402
vn -9.626e-17 -2.6799e-15 1
vt 4.40945 0.19685
vt 2.97638 0.19685
vt 2.97638 0.0787402
v 110 2 -58
vt 4.33071 0.0787402
f 22/57/13 15/58/13 17/59/13 24/60/13 25/61/13 

vt 4.40945 -1.55898
vn -6.95384e-17 -0.707107 0.707107
vt 4.33071 -1.55898
vt 2.97638 -1.55898
v 77.6 -4.56703e-15 -60
vt 3.05512 -1.67033
v 110 -1.36737e-16 -60
vt 4.33071 -1.67033
f 22/62/14 25/63/14 24/64/14 26/65/14 27/66/14 

vt -3.77953 -2.04894
vn -0.707107 -0.707107 -0
v 77.6 -4.56703e-15 -94
vt -3.70079 -2.16029
vt -2.3622 -2.16029
vt -2.28346 -2.04894
f 23/67/15 28/68/15 26/69/15 24/70/15 

vt -4.40945 2.72821
vn 9.72948e-17 -0.707107 -0.707107
v 110 -1.36737e-16 -94
vt -4.33071 2.61685
vt -3.05512 2.61685
vt -2.97638 2.72821
f 21/71/16 29/72/16 28/73/16 23/74/16 

vt 2.28346 3.17363
vn 0.707107 -0.707107 -0
vt 2.3622 3.06227
vt 3.70079 3.06227
vt 3.77953 3.17363
f 22/75/17 27/76/17 29/77/17 21/78/17 

vt -4.33071 2.3622
vn 1.36737e-16 -1 -5.43806e-34
vt -3.96063 2.77165
vt -4.33071 3.70079
f 27/79/18 7/80/18 29/81/18

vt -3.40157 2.77165
f 27/79/18 4/82/18 7/80/18

vt -3.05512 2.3622
f 26/83/18 4/82/18 27/79/18

vt -3.40157 3.33071
f 4/82/18 26/83/18 1/84/18

vt -3.05512 3.70079
f 28/85/18 1/84/18 26/83/18

f 1/84/18 28/85/18 29/81/18

vt -3.96063 3.33071
f 1/84/18 29/81/18 5/86/18

f 5/86/18 29/81/18 7/80/18

